<svg width="22" height="17" viewBox="0 0 22 17" fill="none" xmlns="http://www.w3.org/2000/svg">
<path d="M2.75 3.71875C2.37187 3.71875 2.0625 3.95781 2.0625 4.25V4.98379L9.47461 9.68535C10.3641 10.2498 11.6402 10.2498 12.5297 9.68535L19.9375 4.98379V4.25C19.9375 3.95781 19.6281 3.71875 19.25 3.71875H2.75ZM2.0625 7.0457V12.75C2.0625 13.0422 2.37187 13.2812 2.75 13.2812H19.25C19.6281 13.2812 19.9375 13.0422 19.9375 12.75V7.0457L13.8359 10.9172C12.1859 11.9631 9.80977 11.9631 8.16406 10.9172L2.0625 7.0457ZM0 4.25C0 3.07793 1.2332 2.125 2.75 2.125H19.25C20.7668 2.125 22 3.07793 22 4.25V12.75C22 13.9221 20.7668 14.875 19.25 14.875H2.75C1.2332 14.875 0 13.9221 0 12.75V4.25Z" fill="black"/>
</svg>
