<svg width="24" height="22" viewBox="0 0 24 22" fill="none" xmlns="http://www.w3.org/2000/svg">
<path d="M2.66667 2.75C1.19583 2.75 0 3.9832 0 5.5V16.5C0 18.0168 1.19583 19.25 2.66667 19.25H21.3333C22.8042 19.25 24 18.0168 24 16.5V5.5C24 3.9832 22.8042 2.75 21.3333 2.75H2.66667ZM5.33333 16.5H2.66667V13.75C4.1375 13.75 5.33333 14.9832 5.33333 16.5ZM2.66667 8.25V5.5H5.33333C5.33333 7.0168 4.1375 8.25 2.66667 8.25ZM18.6667 16.5C18.6667 14.9832 19.8625 13.75 21.3333 13.75V16.5H18.6667ZM21.3333 8.25C19.8625 8.25 18.6667 7.0168 18.6667 5.5H21.3333V8.25ZM12 6.875C13.0609 6.875 14.0783 7.3096 14.8284 8.08318C15.5786 8.85677 16 9.90598 16 11C16 12.094 15.5786 13.1432 14.8284 13.9168C14.0783 14.6904 13.0609 15.125 12 15.125C10.9391 15.125 9.92172 14.6904 9.17157 13.9168C8.42143 13.1432 8 12.094 8 11C8 9.90598 8.42143 8.85677 9.17157 8.08318C9.92172 7.3096 10.9391 6.875 12 6.875Z" fill="#00AFF0"/>
</svg>
