<svg width="1" height="7" viewBox="0 0 1 7" fill="none" xmlns="http://www.w3.org/2000/svg">
<g clip-path="url(#clip0_60_1257)">
<path d="M0.142857 0.4375C0.0640625 0.4375 0 0.829883 0 1.3125V5.6875C0 6.17012 0.0640625 6.5625 0.142857 6.5625H0.857143C0.935938 6.5625 1 6.17012 1 5.6875V1.3125C1 0.829883 0.935938 0.4375 0.857143 0.4375H0.142857ZM0.752232 2.85742L0.466518 4.60742C0.445536 4.73594 0.411607 4.73594 0.390848 4.60742L0.247991 3.73242C0.227009 3.60391 0.227009 3.39609 0.247991 3.26895C0.268973 3.1418 0.302902 3.14043 0.323661 3.26895L0.428571 3.91152L0.676339 2.39258C0.697321 2.26406 0.73125 2.26406 0.752009 2.39258C0.772768 2.52109 0.772991 2.72891 0.752009 2.85605L0.752232 2.85742Z" fill="black"/>
</g>
<defs>
<clipPath id="clip0_60_1257">
<rect width="1" height="7" fill="white"/>
</clipPath>
</defs>
</svg>
