<svg width="15" height="12" viewBox="0 0 15 12" fill="none" xmlns="http://www.w3.org/2000/svg">
<g clip-path="url(#clip0_28_56)">
<path d="M14.2604 2.43281L12.7682 0.307031C12.6354 0.117188 12.3984 0 12.1458 0H2.85415C2.60155 0 2.36457 0.117188 2.23175 0.307031L0.736962 2.43281C-0.0338711 3.52969 0.648421 5.05547 2.08852 5.23125C2.19269 5.24297 2.29946 5.25 2.40363 5.25C3.08332 5.25 3.68748 4.98281 4.10155 4.57031C4.51561 4.98281 5.11977 5.25 5.79946 5.25C6.47915 5.25 7.08332 4.98281 7.49738 4.57031C7.91144 4.98281 8.51561 5.25 9.1953 5.25C9.87759 5.25 10.4792 4.98281 10.8932 4.57031C11.3099 4.98281 11.9114 5.25 12.5911 5.25C12.6979 5.25 12.8021 5.24297 12.9062 5.23125C14.3515 5.05781 15.0364 3.53203 14.263 2.43281H14.2604ZM13.013 5.97422H13.0104C12.8724 5.99062 12.7318 6 12.5885 6C12.2656 6 11.9557 5.95547 11.6667 5.87578V9H3.33332V5.87344C3.04165 5.95547 2.72915 6 2.40623 6C2.263 6 2.11977 5.99062 1.98175 5.97422H1.97915C1.87238 5.96016 1.76821 5.94375 1.66665 5.92031V9V10.5C1.66665 11.3273 2.41405 12 3.33332 12H11.6667C12.5859 12 13.3333 11.3273 13.3333 10.5V9V5.92031C13.2292 5.94375 13.125 5.9625 13.013 5.97422Z" fill="black"/>
</g>
<defs>
<clipPath id="clip0_28_56">
<rect width="15" height="12" fill="white"/>
</clipPath>
</defs>
</svg>
