<svg width="14" height="13" viewBox="0 0 14 13" fill="none" xmlns="http://www.w3.org/2000/svg">
<path d="M1.55556 1.625C0.697569 1.625 0 2.35371 0 3.25V4.875C0 5.09844 0.179861 5.27363 0.381597 5.34727C0.838542 5.5123 1.16667 5.9668 1.16667 6.5C1.16667 7.0332 0.838542 7.4877 0.381597 7.65273C0.179861 7.72637 0 7.90156 0 8.125V9.75C0 10.6463 0.697569 11.375 1.55556 11.375H12.4444C13.3024 11.375 14 10.6463 14 9.75V8.125C14 7.90156 13.8201 7.72637 13.6184 7.65273C13.1615 7.4877 12.8333 7.0332 12.8333 6.5C12.8333 5.9668 13.1615 5.5123 13.6184 5.34727C13.8201 5.27363 14 5.09844 14 4.875V3.25C14 2.35371 13.3024 1.625 12.4444 1.625H1.55556ZM3.11111 4.46875V8.53125C3.11111 8.75469 3.28611 8.9375 3.5 8.9375H10.5C10.7139 8.9375 10.8889 8.75469 10.8889 8.53125V4.46875C10.8889 4.24531 10.7139 4.0625 10.5 4.0625H3.5C3.28611 4.0625 3.11111 4.24531 3.11111 4.46875ZM2.33333 4.0625C2.33333 3.61309 2.6809 3.25 3.11111 3.25H10.8889C11.3191 3.25 11.6667 3.61309 11.6667 4.0625V8.9375C11.6667 9.38691 11.3191 9.75 10.8889 9.75H3.11111C2.6809 9.75 2.33333 9.38691 2.33333 8.9375V4.0625Z" fill="#FF9B05"/>
</svg>
