<svg width="11" height="14" viewBox="0 0 11 14" fill="none" xmlns="http://www.w3.org/2000/svg">
<g clip-path="url(#clip0_64_1358)">
<path d="M3.31964 0.483984C3.45223 0.185938 3.72478 0 4.02187 0H6.97813C7.27522 0 7.54777 0.185938 7.68036 0.483984L7.85714 0.875H10.2143C10.6489 0.875 11 1.26602 11 1.75C11 2.23398 10.6489 2.625 10.2143 2.625H0.785714C0.351116 2.625 0 2.23398 0 1.75C0 1.26602 0.351116 0.875 0.785714 0.875H3.14286L3.31964 0.483984ZM0.785714 3.5H10.2143V12.25C10.2143 13.2152 9.5096 14 8.64286 14H2.35714C1.4904 14 0.785714 13.2152 0.785714 12.25V3.5ZM3.14286 5.25C2.92679 5.25 2.75 5.44688 2.75 5.6875V11.8125C2.75 12.0531 2.92679 12.25 3.14286 12.25C3.35893 12.25 3.53571 12.0531 3.53571 11.8125V5.6875C3.53571 5.44688 3.35893 5.25 3.14286 5.25ZM5.5 5.25C5.28393 5.25 5.10714 5.44688 5.10714 5.6875V11.8125C5.10714 12.0531 5.28393 12.25 5.5 12.25C5.71607 12.25 5.89286 12.0531 5.89286 11.8125V5.6875C5.89286 5.44688 5.71607 5.25 5.5 5.25ZM7.85714 5.25C7.64107 5.25 7.46429 5.44688 7.46429 5.6875V11.8125C7.46429 12.0531 7.64107 12.25 7.85714 12.25C8.07321 12.25 8.25 12.0531 8.25 11.8125V5.6875C8.25 5.44688 8.07321 5.25 7.85714 5.25Z" fill="#737272"/>
</g>
<defs>
<clipPath id="clip0_64_1358">
<rect width="11" height="14" fill="white"/>
</clipPath>
</defs>
</svg>
