<svg width="6" height="1" viewBox="0 0 6 1" fill="none" xmlns="http://www.w3.org/2000/svg">
<g clip-path="url(#clip0_64_1356)">
<path d="M1.81071 0.0345703C1.88304 0.0132813 2.0317 0 2.19375 0H3.80625C3.9683 0 4.11696 0.0132813 4.18929 0.0345703L4.28571 0.0625H5.57143C5.80848 0.0625 6 0.0904297 6 0.125C6 0.15957 5.80848 0.1875 5.57143 0.1875H0.428571C0.191518 0.1875 0 0.15957 0 0.125C0 0.0904297 0.191518 0.0625 0.428571 0.0625H1.71429L1.81071 0.0345703ZM0.428571 0.25H5.57143V0.875C5.57143 0.943945 5.18705 1 4.71429 1H1.28571C0.812946 1 0.428571 0.943945 0.428571 0.875V0.25ZM1.71429 0.375C1.59643 0.375 1.5 0.389062 1.5 0.40625V0.84375C1.5 0.860937 1.59643 0.875 1.71429 0.875C1.83214 0.875 1.92857 0.860937 1.92857 0.84375V0.40625C1.92857 0.389062 1.83214 0.375 1.71429 0.375ZM3 0.375C2.88214 0.375 2.78571 0.389062 2.78571 0.40625V0.84375C2.78571 0.860937 2.88214 0.875 3 0.875C3.11786 0.875 3.21429 0.860937 3.21429 0.84375V0.40625C3.21429 0.389062 3.11786 0.375 3 0.375ZM4.28571 0.375C4.16786 0.375 4.07143 0.389062 4.07143 0.40625V0.84375C4.07143 0.860937 4.16786 0.875 4.28571 0.875C4.40357 0.875 4.5 0.860937 4.5 0.84375V0.40625C4.5 0.389062 4.40357 0.375 4.28571 0.375Z" fill="black"/>
</g>
<defs>
<clipPath id="clip0_64_1356">
<rect width="6" height="1" fill="white"/>
</clipPath>
</defs>
</svg>
