<svg width="17" height="13" viewBox="0 0 17 13" fill="none" xmlns="http://www.w3.org/2000/svg">
<g clip-path="url(#clip0_38_181)">
<path d="M2.975 0C2.27109 0 1.7 0.545898 1.7 1.21875V2.4375H0.425C0.19125 2.4375 0 2.62031 0 2.84375C0 3.06719 0.19125 3.25 0.425 3.25H1.7H7.225C7.45875 3.25 7.65 3.43281 7.65 3.65625C7.65 3.87969 7.45875 4.0625 7.225 4.0625H1.7H1.275C1.04125 4.0625 0.85 4.24531 0.85 4.46875C0.85 4.69219 1.04125 4.875 1.275 4.875H1.7H6.375C6.60875 4.875 6.8 5.05781 6.8 5.28125C6.8 5.50469 6.60875 5.6875 6.375 5.6875H1.7H0.425C0.19125 5.6875 0 5.87031 0 6.09375C0 6.31719 0.19125 6.5 0.425 6.5H1.7H5.525C5.75875 6.5 5.95 6.68281 5.95 6.90625C5.95 7.12969 5.75875 7.3125 5.525 7.3125H1.7V10.5625C1.7 11.9082 2.84219 13 4.25 13C5.65781 13 6.8 11.9082 6.8 10.5625H10.2C10.2 11.9082 11.3422 13 12.75 13C14.1578 13 15.3 11.9082 15.3 10.5625H16.15C16.6202 10.5625 17 10.1994 17 9.75C17 9.30059 16.6202 8.9375 16.15 8.9375V7.3125V6.5V6.0252C16.15 5.59355 15.972 5.17969 15.6533 4.875L13.6 2.9123C13.2813 2.60762 12.8483 2.4375 12.3967 2.4375H11.05V1.21875C11.05 0.545898 10.4789 0 9.775 0H2.975ZM14.45 6.0252V6.5H11.05V4.0625H12.3967L14.45 6.0252ZM4.25 9.34375C4.58815 9.34375 4.91245 9.47215 5.15156 9.70071C5.39067 9.92927 5.525 10.2393 5.525 10.5625C5.525 10.8857 5.39067 11.1957 5.15156 11.4243C4.91245 11.6528 4.58815 11.7812 4.25 11.7812C3.91185 11.7812 3.58755 11.6528 3.34844 11.4243C3.10933 11.1957 2.975 10.8857 2.975 10.5625C2.975 10.2393 3.10933 9.92927 3.34844 9.70071C3.58755 9.47215 3.91185 9.34375 4.25 9.34375ZM11.475 10.5625C11.475 10.2393 11.6093 9.92927 11.8484 9.70071C12.0875 9.47215 12.4118 9.34375 12.75 9.34375C13.0882 9.34375 13.4125 9.47215 13.6516 9.70071C13.8907 9.92927 14.025 10.2393 14.025 10.5625C14.025 10.8857 13.8907 11.1957 13.6516 11.4243C13.4125 11.6528 13.0882 11.7812 12.75 11.7812C12.4118 11.7812 12.0875 11.6528 11.8484 11.4243C11.6093 11.1957 11.475 10.8857 11.475 10.5625Z" fill="#07F2B8"/>
</g>
<defs>
<clipPath id="clip0_38_181">
<rect width="17" height="13" fill="white"/>
</clipPath>
</defs>
</svg>
