<svg width="14" height="10" viewBox="0 0 14 10" fill="none" xmlns="http://www.w3.org/2000/svg">
<path d="M1.55556 0C0.697569 0 0 0.728711 0 1.625V3.25C0 3.47344 0.179861 3.64863 0.381597 3.72227C0.838542 3.8873 1.16667 4.3418 1.16667 4.875C1.16667 5.4082 0.838542 5.8627 0.381597 6.02773C0.179861 6.10137 0 6.27656 0 6.5V8.125C0 9.02129 0.697569 9.75 1.55556 9.75H12.4444C13.3024 9.75 14 9.02129 14 8.125V6.5C14 6.27656 13.8201 6.10137 13.6184 6.02773C13.1615 5.8627 12.8333 5.4082 12.8333 4.875C12.8333 4.3418 13.1615 3.8873 13.6184 3.72227C13.8201 3.64863 14 3.47344 14 3.25V1.625C14 0.728711 13.3024 0 12.4444 0H1.55556ZM3.11111 2.84375V6.90625C3.11111 7.12969 3.28611 7.3125 3.5 7.3125H10.5C10.7139 7.3125 10.8889 7.12969 10.8889 6.90625V2.84375C10.8889 2.62031 10.7139 2.4375 10.5 2.4375H3.5C3.28611 2.4375 3.11111 2.62031 3.11111 2.84375ZM2.33333 2.4375C2.33333 1.98809 2.6809 1.625 3.11111 1.625H10.8889C11.3191 1.625 11.6667 1.98809 11.6667 2.4375V7.3125C11.6667 7.76191 11.3191 8.125 10.8889 8.125H3.11111C2.6809 8.125 2.33333 7.76191 2.33333 7.3125V2.4375Z" fill="#FF9B05"/>
</svg>
