<svg width="11" height="9" viewBox="0 0 11 9" fill="none" xmlns="http://www.w3.org/2000/svg">
<path d="M6.28571 0.6875C6.28571 0.307227 5.9346 0 5.5 0C5.0654 0 4.71429 0.307227 4.71429 0.6875V3.78125H1.17857C0.743973 3.78125 0.392857 4.08848 0.392857 4.46875C0.392857 4.84902 0.743973 5.15625 1.17857 5.15625H4.71429V8.25C4.71429 8.63027 5.0654 8.9375 5.5 8.9375C5.9346 8.9375 6.28571 8.63027 6.28571 8.25V5.15625H9.82143C10.256 5.15625 10.6071 4.84902 10.6071 4.46875C10.6071 4.08848 10.256 3.78125 9.82143 3.78125H6.28571V0.6875Z" fill="#737272"/>
</svg>
