<svg width="22" height="15" viewBox="0 0 22 15" fill="none" xmlns="http://www.w3.org/2000/svg">
<path d="M3.85 0C2.93906 0 2.2 0.629883 2.2 1.40625V2.8125H0.55C0.2475 2.8125 0 3.02344 0 3.28125C0 3.53906 0.2475 3.75 0.55 3.75H2.2H9.35C9.6525 3.75 9.9 3.96094 9.9 4.21875C9.9 4.47656 9.6525 4.6875 9.35 4.6875H2.2H1.65C1.3475 4.6875 1.1 4.89844 1.1 5.15625C1.1 5.41406 1.3475 5.625 1.65 5.625H2.2H8.25C8.5525 5.625 8.8 5.83594 8.8 6.09375C8.8 6.35156 8.5525 6.5625 8.25 6.5625H2.2H0.55C0.2475 6.5625 0 6.77344 0 7.03125C0 7.28906 0.2475 7.5 0.55 7.5H2.2H7.15C7.4525 7.5 7.7 7.71094 7.7 7.96875C7.7 8.22656 7.4525 8.4375 7.15 8.4375H2.2V12.1875C2.2 13.7402 3.67813 15 5.5 15C7.32188 15 8.8 13.7402 8.8 12.1875H13.2C13.2 13.7402 14.6781 15 16.5 15C18.3219 15 19.8 13.7402 19.8 12.1875H20.9C21.5084 12.1875 22 11.7686 22 11.25C22 10.7314 21.5084 10.3125 20.9 10.3125V8.4375V7.5V6.95215C20.9 6.4541 20.6697 5.97656 20.2572 5.625L17.6 3.36035C17.1875 3.00879 16.6272 2.8125 16.0428 2.8125H14.3V1.40625C14.3 0.629883 13.5609 0 12.65 0H3.85ZM18.7 6.95215V7.5H14.3V4.6875H16.0428L18.7 6.95215ZM5.5 10.7812C5.93761 10.7813 6.35729 10.9294 6.66673 11.1931C6.97616 11.4569 7.15 11.8145 7.15 12.1875C7.15 12.5605 6.97616 12.9181 6.66673 13.1819C6.35729 13.4456 5.93761 13.5937 5.5 13.5938C5.06239 13.5937 4.64271 13.4456 4.33327 13.1819C4.02384 12.9181 3.85 12.5605 3.85 12.1875C3.85 11.8145 4.02384 11.4569 4.33327 11.1931C4.64271 10.9294 5.06239 10.7813 5.5 10.7812ZM14.85 12.1875C14.85 11.8145 15.0238 11.4569 15.3333 11.1931C15.6427 10.9294 16.0624 10.7813 16.5 10.7812C16.9376 10.7813 17.3573 10.9294 17.6667 11.1931C17.9762 11.4569 18.15 11.8145 18.15 12.1875C18.15 12.5605 17.9762 12.9181 17.6667 13.1819C17.3573 13.4456 16.9376 13.5937 16.5 13.5938C16.0624 13.5937 15.6427 13.4456 15.3333 13.1819C15.0238 12.9181 14.85 12.5605 14.85 12.1875Z" fill="#07F2B8"/>
</svg>
