<svg width="42" height="43" viewBox="0 0 42 43" fill="none" xmlns="http://www.w3.org/2000/svg">
<path d="M21 0C26.5695 0 31.911 2.26517 35.8492 6.2972C39.7875 10.3292 42 15.7978 42 21.5C42 27.2022 39.7875 32.6708 35.8492 36.7028C31.911 40.7348 26.5695 43 21 43C15.4305 43 10.089 40.7348 6.15076 36.7028C2.21249 32.6708 0 27.2022 0 21.5C0 15.7978 2.21249 10.3292 6.15076 6.2972C10.089 2.26517 15.4305 0 21 0ZM19.0312 10.0781V21.5C19.0312 22.1719 19.3594 22.8018 19.909 23.1797L27.784 28.5547C28.6863 29.1762 29.9086 28.9242 30.5156 27.992C31.1227 27.0598 30.8766 25.8168 29.966 25.1953L22.9688 20.425V10.0781C22.9688 8.96113 22.091 8.0625 21 8.0625C19.909 8.0625 19.0312 8.96113 19.0312 10.0781Z" fill="#F79817"/>
</svg>
